<?xml version="1.0" standalone="no"?><!DOCTYPE svg PUBLIC "-//W3C//DTD SVG 1.1//EN" "http://www.w3.org/Graphics/SVG/1.1/DTD/svg11.dtd"><svg t="1727073961825" class="icon" viewBox="0 0 1024 1024" version="1.1" xmlns="http://www.w3.org/2000/svg" p-id="6021" xmlns:xlink="http://www.w3.org/1999/xlink" width="200" height="200"><path d="M224.697856 769.024c87.04-27.136 135.68-119.296 108.544-206.336-3.584-10.752-7.168-21.504-12.8-30.72C165.305856 294.912 270.265856 101.376 461.753856 0 461.753856 0-91.718144 92.16 13.241856 642.048c2.048 5.632 7.168 27.136 10.752 32.768 34.304 77.824 119.296 117.76 200.704 94.208z m644.096-144.896c-68.608-59.904-172.032-54.272-231.424 14.336-7.168 9.216-14.336 17.92-19.968 27.136-122.88 254.976-343.552 265.728-529.92 153.6 0 0 365.568 424.96 781.312 48.64 3.584-3.584 19.968-21.504 23.552-25.088 49.152-68.608 39.936-162.304-23.552-218.624z m-229.888-599.04c-5.632-2.048-29.184-5.632-34.304-7.168-83.456-7.168-159.232 48.64-175.616 132.096-17.92 88.576 41.472 175.616 130.048 193.536 10.752 2.048 21.504 3.584 32.768 3.584 284.16-25.088 403.456 159.232 401.408 376.32 2.56-1.536 181.248-533.504-354.304-698.368z" p-id="6022" fill="#e98f36"></path></svg>